<?xml version="1.0" standalone="no"?>
<!DOCTYPE svg PUBLIC "-//W3C//DTD SVG 20010904//EN"
 "http://www.w3.org/TR/2001/REC-SVG-20010904/DTD/svg10.dtd">
<svg version="1.0" xmlns="http://www.w3.org/2000/svg"
 width="512.000000pt" height="512.000000pt" viewBox="0 0 512.000000 512.000000"
 preserveAspectRatio="xMidYMid meet">
<metadata>
Created by potrace 1.11, written by Peter Selinger 2001-2013
</metadata>
<g transform="translate(0.000000,512.000000) scale(0.100000,-0.100000)"
fill="#000000" stroke="none">
<path d="M2569 4626 c-2 -2 -38 -7 -79 -10 -123 -11 -259 -38 -361 -72 -25 -8
-54 -16 -65 -18 -46 -10 -260 -105 -342 -152 -65 -37 -230 -149 -278 -189
-128 -106 -265 -257 -355 -390 -70 -104 -70 -104 -123 -212 -25 -50 -56 -99
-68 -107 -248 -173 -422 -350 -441 -452 -2 -10 -7 -26 -10 -34 -17 -43 -39
-150 -54 -265 -9 -71 -10 -395 -1 -445 4 -19 9 -50 12 -68 15 -83 82 -182 163
-239 l41 -29 -45 -70 c-59 -92 -87 -155 -106 -239 -27 -119 -13 -195 58 -320
70 -122 147 -217 301 -370 186 -186 281 -255 415 -300 143 -49 320 -73 514
-70 90 2 255 13 275 18 3 1 41 -14 85 -32 116 -49 291 -99 400 -115 23 -4 51
-8 63 -11 84 -16 236 -20 382 -11 131 9 138 10 285 40 359 73 704 258 966 517
112 111 138 141 211 240 90 123 173 276 208 384 29 90 2 240 -60 330 -32 46
-135 143 -164 154 -15 6 -7 16 50 61 103 80 283 265 337 347 160 241 187 417
106 708 -24 86 -43 142 -52 151 -4 4 -7 13 -7 21 0 7 -26 66 -57 131 -45 93
-70 129 -118 177 -111 112 -272 174 -515 201 -76 8 -85 11 -81 25 11 39 2 110
-19 150 -60 117 -342 313 -605 422 -125 52 -332 108 -450 122 -27 3 -61 8 -75
11 -27 6 -336 15 -341 10z m1676 -1261 c22 -3 49 -7 60 -9 11 -2 38 -6 60 -10
58 -10 172 -45 227 -69 l48 -21 -19 -32 c-48 -81 -206 -238 -338 -336 -98 -73
-192 -138 -199 -138 -2 0 -20 -11 -40 -25 l-37 -25 -61 63 c-33 35 -74 73 -91
85 l-30 20 32 40 c47 58 102 163 123 233 14 46 18 83 15 149 l-4 87 107 -3
c59 -2 125 -6 147 -9z m-2940 -289 c45 -8 167 -19 192 -18 16 1 -5 -25 -86
-106 -59 -59 -127 -135 -150 -169 -30 -43 -50 -63 -65 -63 -11 0 -91 -1 -176
-2 -85 -1 -175 1 -200 4 -25 4 -53 7 -62 7 -10 1 -18 5 -18 9 0 10 104 94 190
153 36 24 67 46 70 49 3 3 14 10 25 17 11 7 65 39 119 73 55 33 107 58 115 56
9 -3 30 -7 46 -10z m1805 -777 c-26 -11 -106 -34 -150 -44 -14 -3 2 8 34 23
33 16 77 29 100 30 37 1 39 0 16 -9z m-1654 -657 c38 -37 83 -74 99 -82 43
-20 57 -32 48 -39 -17 -12 -69 -87 -95 -136 -51 -96 -66 -199 -44 -301 4 -21
2 -21 -122 -18 -134 3 -234 12 -307 28 -5 2 -31 6 -58 11 -26 4 -50 11 -52 16
-3 4 4 35 15 69 51 153 178 303 420 499 14 11 26 20 26 21 1 0 33 -30 70 -68z"/>
</g>
</svg>
